
<?xml version="1.0" encoding="UTF-8"?>
<svg width="89px" height="67px" viewBox="0 0 89 67" version="1.1" xmlns="http://www.w3.org/2000/svg" xmlns:xlink="http://www.w3.org/1999/xlink">
    <!-- Generator: Sketch 50.2 (55047) - http://www.bohemiancoding.com/sketch -->
    <title>trailer-sleep-car-camping</title>
    <desc>Created with Sketch.</desc>
    <defs></defs>
    <g id="Page-1" stroke="none" stroke-width="1" fill="none" fill-rule="evenodd" stroke-linecap="round">
        <g id="Experiences" transform="translate(-641.000000, -1746.000000)" stroke-width="4">
            <g id="trailer-sleep-car-camping" transform="translate(643.000000, 1748.000000)">
                <ellipse id="XMLID_1307_" stroke="#282828" stroke-linejoin="round" cx="24.1170705" cy="53.5769231" rx="9.19146825" ry="9.19871795"></ellipse>
                <path d="M0.219238679,37.0192308 L44.3382867,37.0192308" id="Shape" stroke="#FE366A"></path>
                <path d="M62.7212232,37.0192308 L73.7509851,37.0192308" id="Shape" stroke="#FE366A"></path>
                <path d="M15.1098985,51.7371795 L0.219253385,51.7371795 L0.219253385,11.2628205 C0.219253385,5.16644673 5.15744581,0.224358974 11.2490153,0.224358974 L62.7212375,0.224358974 C68.8128081,0.224358974 73.7509994,5.16644673 73.7509994,11.2628205 L73.7509994,51.7371795 L33.1244913,51.7371795" id="XMLID_1306_" stroke="#282828" stroke-linejoin="round"></path>
                <rect id="XMLID_1305_" stroke="#32B2A5" stroke-linejoin="round" x="7.57241549" y="11.26301" width="29.4127161" height="14.717945"></rect>
                <path d="M73.750999,51.7371795 L84.780761,51.7371795" id="XMLID_1304_" stroke="#282828" stroke-linejoin="round"></path>
                <path d="M77.4275724,51.7371795 L77.4275724,59.0961538" id="XMLID_1303_" stroke="#282828" stroke-linejoin="round"></path>
                <polyline id="XMLID_1302_" stroke="#282828" stroke-linejoin="round" points="62.7212371 51.7371795 62.7212232 18.6217949 44.3382867 18.6217949 44.3383006 51.7371795"></polyline>
                <path d="M22.2787629,11.2628205 L22.2787629,25.9807692" id="Shape" stroke="#32B2A5" stroke-linejoin="round"></path>
            </g>
        </g>
    </g>
</svg>