
<?xml version="1.0" encoding="UTF-8"?>
<svg width="576px" height="454px" viewBox="0 0 576 454" version="1.1" xmlns="http://www.w3.org/2000/svg" xmlns:xlink="http://www.w3.org/1999/xlink">
    <!-- Generator: Sketch 50.2 (55047) - http://www.bohemiancoding.com/sketch -->
    <title>Giggle</title>
    <desc>Created with Sketch.</desc>
    <defs></defs>
    <g id="Page-1" stroke="none" stroke-width="1" fill="none" fill-rule="evenodd">
        <g id="Giggle" transform="translate(30.000000, 30.000000)">
            <path d="M166.7081,257.689898 L402.397348,192.165556 C433.777939,186.263566 451.65222,202.775864 456.020192,241.702449 C462.57215,300.092326 437.341123,386.952667 347.668688,415.79073 C257.996254,444.628792 182.969734,392.503397 153.908284,336.882758 C134.533984,299.802332 138.80059,273.404712 166.7081,257.689898 Z" id="Path-3" fill="#F4F4F5"></path>
            <path d="M0,192.130434 C2.80835538,150.626573 23.1297447,123.436556 60.9641681,110.560381 C109.102224,97.4224983 145.640135,123.240927 157.99951,145.692099" id="Path-6-Copy" stroke="#F4F4F5" stroke-width="60" stroke-linecap="round"></path>
            <path d="M358,85.1304339 C360.808355,43.6265735 381.129745,16.4365559 418.964168,3.56038112 C467.102224,-9.57750172 503.640135,16.2409272 515.99951,38.692099" id="Path-6-Copy-2" stroke="#F4F4F5" stroke-width="60" stroke-linecap="round"></path>
        </g>
    </g>
</svg>